<svg width="18" height="15" viewBox="0 0 18 15" fill="none" xmlns="http://www.w3.org/2000/svg">
<path d="M0 7.39062C0.758879 3.18618 4.38132 0 8.73438 0C13.0874 0 16.7091 3.18618 17.4688 7.39062C16.7099 11.5951 13.0874 14.7812 8.73438 14.7812C4.38132 14.7812 0.759686 11.5951 0 7.39062ZM8.73438 11.4965C9.80495 11.4965 10.8317 11.0639 11.5887 10.2939C12.3457 9.52393 12.771 8.47958 12.771 7.39062C12.771 6.30167 12.3457 5.25732 11.5887 4.48731C10.8317 3.71731 9.80495 3.28472 8.73438 3.28472C7.66381 3.28472 6.63708 3.71731 5.88007 4.48731C5.12307 5.25732 4.69778 6.30167 4.69778 7.39062C4.69778 8.47958 5.12307 9.52393 5.88007 10.2939C6.63708 11.0639 7.66381 11.4965 8.73438 11.4965ZM8.73438 9.85417C8.09203 9.85417 7.476 9.59462 7.02179 9.13261C6.56759 8.67061 6.31242 8.044 6.31242 7.39062C6.31242 6.73725 6.56759 6.11064 7.02179 5.64864C7.476 5.18663 8.09203 4.92708 8.73438 4.92708C9.37672 4.92708 9.99275 5.18663 10.447 5.64864C10.9012 6.11064 11.1563 6.73725 11.1563 7.39062C11.1563 8.044 10.9012 8.67061 10.447 9.13261C9.99275 9.59462 9.37672 9.85417 8.73438 9.85417Z" fill="black"/>
</svg>
