<svg width="43" height="29" viewBox="0 0 43 29" fill="none" xmlns="http://www.w3.org/2000/svg">
<path fill-rule="evenodd" clip-rule="evenodd" d="M43 0H0V28.2188H43V0ZM22.1719 6.71875C17.8188 6.71875 14.1964 9.90493 13.4375 14.1094C14.1972 18.3138 17.8188 21.5 22.1719 21.5C26.5249 21.5 30.1474 18.3138 30.9062 14.1094C30.1466 9.90493 26.5249 6.71875 22.1719 6.71875ZM25.0262 17.0127C24.2692 17.7827 23.2424 18.2153 22.1719 18.2153C21.1013 18.2153 20.0746 17.7827 19.3176 17.0127C18.5606 16.2427 18.1353 15.1983 18.1353 14.1094C18.1353 13.0204 18.5606 11.9761 19.3176 11.2061C20.0746 10.4361 21.1013 10.0035 22.1719 10.0035C23.2424 10.0035 24.2692 10.4361 25.0262 11.2061C25.7832 11.9761 26.2085 13.0204 26.2085 14.1094C26.2085 15.1983 25.7832 16.2427 25.0262 17.0127ZM20.4593 15.8514C20.9135 16.3134 21.5295 16.5729 22.1719 16.5729C22.8142 16.5729 23.4303 16.3134 23.8845 15.8514C24.3387 15.3894 24.5938 14.7627 24.5938 14.1094C24.5938 13.456 24.3387 12.8294 23.8845 12.3674C23.4303 11.9054 22.8142 11.6458 22.1719 11.6458C21.5295 11.6458 20.9135 11.9054 20.4593 12.3674C20.0051 12.8294 19.7499 13.456 19.7499 14.1094C19.7499 14.7627 20.0051 15.3894 20.4593 15.8514Z" fill="white"/>
</svg>
