<svg width="30" height="27" viewBox="0 0 30 27" fill="none" xmlns="http://www.w3.org/2000/svg">
<path d="M15.0711 0C7.23903 0 0.895388 6.1942 0.895388 13.8418C0.89378 16.7476 1.8293 19.5801 3.56924 21.9374C5.30917 24.2948 7.76515 26.0573 10.5888 26.9749C11.2975 27.0953 11.5626 26.6801 11.5626 26.316C11.5626 25.988 11.5442 24.8986 11.5442 23.7387C7.98326 24.3796 7.06183 22.8916 6.77832 22.1123C6.61813 21.7136 5.92777 20.4859 5.3253 20.1564C4.82915 19.8976 4.12037 19.2567 5.30688 19.2401C6.42392 19.2221 7.2206 20.2436 7.4871 20.6589C8.76292 22.7518 10.8014 22.1635 11.6151 21.8008C11.7398 20.9011 12.1112 20.2962 12.5195 19.9502C9.36539 19.6041 6.06953 18.4096 6.06953 13.1151C6.06953 11.6091 6.61813 10.3647 7.52254 9.39443C7.38079 9.04838 6.88464 7.6296 7.6643 5.72635C7.6643 5.72635 8.85081 5.3637 11.5626 7.14652C12.7166 6.83378 13.9089 6.67637 15.1066 6.67867C16.3115 6.67867 17.5164 6.83369 18.6505 7.14514C21.3609 5.3457 22.5488 5.72774 22.5488 5.72774C23.3285 7.63098 22.8323 9.04977 22.6906 9.39581C23.5936 10.3647 24.1436 11.5925 24.1436 13.1151C24.1436 18.4276 20.8307 19.6041 17.6766 19.9502C18.1898 20.382 18.6335 21.2126 18.6335 22.5109C18.6335 24.3616 18.6151 25.8496 18.6151 26.3174C18.6151 26.6801 18.8816 27.1119 19.5903 26.9735C22.4043 26.0458 24.8494 24.2799 26.5817 21.9242C28.3139 19.5686 29.2461 16.7418 29.2469 13.8418C29.2469 6.1942 22.9032 0 15.0711 0Z" fill="white"/>
</svg>
