<svg width="42" height="27" viewBox="0 0 42 27" fill="none" xmlns="http://www.w3.org/2000/svg">
<path d="M12.3217 0C13.529 0 14.6457 0.0964282 15.666 0.381856C16.5919 0.555514 17.4757 0.911885 18.2678 1.431C19.0123 1.90735 19.5697 2.57657 19.94 3.43478C20.3122 4.29299 20.4974 5.34406 20.4974 6.4877C20.4974 7.82419 20.2197 8.96783 19.5697 9.82605C19.0123 10.6862 18.0827 11.448 16.9679 12.0208C18.5475 12.499 19.7548 13.3573 20.4974 14.5009C21.2419 15.6465 21.7067 17.0775 21.7067 18.6994C21.7067 20.0359 21.427 21.1795 20.9622 22.1342C20.4974 23.0888 19.7548 23.947 18.9178 24.5198C18.0086 25.1338 17.0035 25.5851 15.9457 25.8544C14.8309 26.1417 13.7161 26.3326 12.6013 26.3326H0.147827V0H12.3217ZM11.5772 10.6843C12.5994 10.6843 13.4365 10.3988 14.0864 9.92247C14.7364 9.44612 15.0161 8.58598 15.0161 7.53684C15.0161 6.96405 14.9216 6.39127 14.7364 6.01134C14.5512 5.62949 14.2716 5.34213 13.9013 5.0567C13.529 4.86577 13.1568 4.67485 12.692 4.58035C12.2272 4.48392 11.7643 4.48392 11.205 4.48392H5.81623V10.6862H11.5791L11.5772 10.6843ZM11.8569 21.9432C12.4143 21.9432 12.9717 21.8468 13.4365 21.7523C13.9058 21.6612 14.3496 21.4656 14.7364 21.1795C15.115 20.9003 15.4318 20.5428 15.666 20.1304C15.8512 19.654 16.0383 19.0812 16.0383 18.414C16.0383 17.0775 15.666 16.1228 14.9235 15.4555C14.179 14.8827 13.1568 14.5973 11.9494 14.5973H5.81623V21.9452H11.8569V21.9432ZM29.7917 21.8468C30.5343 22.6105 31.6491 22.9924 33.1361 22.9924C34.1583 22.9924 35.0879 22.7069 35.8304 22.2306C36.5749 21.6578 37.0397 21.085 37.2249 20.5122H41.7785C41.034 22.8014 39.9193 24.4234 38.4341 25.4725C36.9452 26.4271 35.1805 26.9999 33.0435 26.9999C31.6762 27.0042 30.3204 26.7451 29.0473 26.2362C27.9017 25.7976 26.8801 25.0768 26.0732 24.1379C25.2103 23.2596 24.5724 22.178 24.2159 20.9886C23.7511 19.7485 23.564 18.414 23.564 16.8865C23.564 15.4555 23.7511 14.121 24.2159 12.879C24.6628 11.6834 25.324 10.5834 26.1658 9.63512C27.0028 8.77691 28.0251 8.01512 29.1398 7.53684C30.3807 7.02782 31.7062 6.76849 33.0435 6.77313C34.6231 6.77313 36.0175 7.06048 37.2249 7.72777C38.4341 8.39505 39.3619 9.15876 40.1063 10.3043C40.8657 11.4046 41.4316 12.6315 41.7785 13.93C41.9637 15.2646 42.0562 16.6011 41.9637 18.1266H28.4899C28.4899 19.654 29.0473 21.085 29.7917 21.8487V21.8468ZM35.6453 11.8298C34.9953 11.1625 33.9731 10.7807 32.7638 10.7807C31.9287 10.7807 31.2768 10.9716 30.7194 11.257C30.162 11.5444 29.7917 11.9263 29.4195 12.3081C29.0774 12.677 28.8511 13.1417 28.7695 13.6427C28.675 14.121 28.5824 14.5009 28.5824 14.8827H36.9452C36.7601 13.4518 36.2953 12.499 35.6453 11.8298V11.8298ZM27.4677 1.81285H37.8749V4.38942H27.4695V1.81285H27.4677Z" fill="white"/>
</svg>
