<svg width="71" height="71" viewBox="0 0 71 71" fill="none" xmlns="http://www.w3.org/2000/svg">
<circle cx="35.5" cy="35.5" r="35.5" fill="white"/>
<path d="M22.9959 21.9611V49.7862H38.1733V21.9611H22.9959ZM21.7312 19.4316H39.4381C39.7735 19.4316 40.0952 19.5648 40.3324 19.802C40.5696 20.0392 40.7028 20.3609 40.7028 20.6964V51.051C40.7028 51.3865 40.5696 51.7082 40.3324 51.9453C40.0952 52.1825 39.7735 52.3158 39.4381 52.3158H21.7312C21.3957 52.3158 21.074 52.1825 20.8368 51.9453C20.5996 51.7082 20.4664 51.3865 20.4664 51.051V20.6964C20.4664 20.3609 20.5996 20.0392 20.8368 19.802C21.074 19.5648 21.3957 19.4316 21.7312 19.4316Z" fill="#333333"/>
<path d="M25.5255 27.0202H35.6437V29.5498H25.5255V27.0202ZM25.5255 34.6089H35.6437V37.1384H25.5255V34.6089ZM25.5255 42.1975H35.6437V44.7271H25.5255V42.1975ZM40.7028 37.1384H45.7619V39.668H40.7028V37.1384ZM40.7028 42.1975H45.7619V44.7271H40.7028V42.1975ZM17.9368 49.7862H53.3506V52.3157H17.9368V49.7862Z" fill="#333333"/>
<path d="M40.7028 32.0794V49.7862H48.2915V32.0794H40.7028ZM39.4381 29.5498H49.5563C49.8917 29.5498 50.2134 29.6831 50.4506 29.9202C50.6878 30.1574 50.8211 30.4791 50.8211 30.8146V51.051C50.8211 51.3865 50.6878 51.7082 50.4506 51.9454C50.2134 52.1825 49.8917 52.3158 49.5563 52.3158H39.4381C39.1026 52.3158 38.7809 52.1825 38.5437 51.9454C38.3065 51.7082 38.1733 51.3865 38.1733 51.051V30.8146C38.1733 30.4791 38.3065 30.1574 38.5437 29.9202C38.7809 29.6831 39.1026 29.5498 39.4381 29.5498Z" fill="#333333"/>
</svg>
