<svg width="84" height="84" viewBox="0 0 84 84" fill="none" xmlns="http://www.w3.org/2000/svg">
<path d="M42 84C18.8034 84 0 65.1966 0 42C0 18.8034 18.8034 0 42 0C65.1966 0 84 18.8034 84 42C84 65.1966 65.1966 84 42 84ZM28.938 46.914L28.9926 46.8846L32.6466 58.9386C33.117 60.2448 33.7638 60.48 34.5492 60.3708C35.3388 60.2658 35.7546 59.8416 36.2712 59.346L41.2608 54.5244L51.9708 62.454C53.928 63.5334 55.335 62.9748 55.8222 60.6396L62.7816 27.7872C63.5502 24.7296 62.2062 23.5032 59.8332 24.4776L18.9546 40.2696C16.1658 41.3868 16.1826 42.9492 18.4506 43.6422L28.938 46.9182V46.914Z" fill="white"/>
</svg>
