<svg width="28" height="27" viewBox="0 0 28 27" fill="none" xmlns="http://www.w3.org/2000/svg">
<path d="M13.5007 0C17.1688 0 17.6265 0.0134999 19.0657 0.0809999C20.5035 0.1485 21.4823 0.37395 22.3436 0.70875C23.2347 1.05165 23.9853 1.51605 24.736 2.2653C25.4225 2.94016 25.9537 3.75649 26.2926 4.6575C26.6261 5.51745 26.8529 6.49755 26.9204 7.93529C26.9838 9.37439 27.0014 9.83204 27.0014 13.5C27.0014 17.1679 26.9879 17.6256 26.9204 19.0647C26.8529 20.5024 26.6261 21.4812 26.2926 22.3425C25.9547 23.244 25.4233 24.0605 24.736 24.7347C24.0609 25.4209 23.2446 25.9521 22.3436 26.2912C21.4837 26.6247 20.5035 26.8515 19.0657 26.919C17.6265 26.9824 17.1688 27 13.5007 27C9.83256 27 9.37488 26.9865 7.93571 26.919C6.49788 26.8515 5.51908 26.6247 4.65774 26.2912C3.75633 25.953 2.93981 25.4218 2.26542 24.7347C1.57878 24.0599 1.04756 23.2436 0.708787 22.3425C0.373969 21.4825 0.148508 20.5024 0.0810041 19.0647C0.0175508 17.6256 0 17.1679 0 13.5C0 9.83204 0.0135006 9.37439 0.0810041 7.93529C0.148508 6.4962 0.373969 5.5188 0.708787 4.6575C1.04662 3.75594 1.57797 2.93938 2.26542 2.2653C2.94001 1.57846 3.75647 1.04723 4.65774 0.70875C5.51908 0.37395 6.49653 0.1485 7.93571 0.0809999C9.37488 0.0175499 9.83256 0 13.5007 0ZM13.5007 6.75C11.7104 6.75 9.99341 7.46115 8.72748 8.72702C7.46154 9.99289 6.75035 11.7098 6.75035 13.5C6.75035 15.2902 7.46154 17.0071 8.72748 18.273C9.99341 19.5388 11.7104 20.25 13.5007 20.25C15.291 20.25 17.008 19.5388 18.2739 18.273C19.5398 17.0071 20.251 15.2902 20.251 13.5C20.251 11.7098 19.5398 9.99289 18.2739 8.72702C17.008 7.46115 15.291 6.75 13.5007 6.75V6.75ZM22.2761 6.4125C22.2761 5.96494 22.0983 5.53572 21.7819 5.21925C21.4654 4.90279 21.0361 4.725 20.5886 4.725C20.141 4.725 19.7117 4.90279 19.3953 5.21925C19.0788 5.53572 18.901 5.96494 18.901 6.4125C18.901 6.86005 19.0788 7.28927 19.3953 7.60574C19.7117 7.92221 20.141 8.1 20.5886 8.1C21.0361 8.1 21.4654 7.92221 21.7819 7.60574C22.0983 7.28927 22.2761 6.86005 22.2761 6.4125ZM13.5007 9.44999C14.5749 9.44999 15.6051 9.87669 16.3646 10.6362C17.1242 11.3957 17.5509 12.4259 17.5509 13.5C17.5509 14.5741 17.1242 15.6043 16.3646 16.3638C15.6051 17.1233 14.5749 17.55 13.5007 17.55C12.4265 17.55 11.3963 17.1233 10.6368 16.3638C9.8772 15.6043 9.45049 14.5741 9.45049 13.5C9.45049 12.4259 9.8772 11.3957 10.6368 10.6362C11.3963 9.87669 12.4265 9.44999 13.5007 9.44999V9.44999Z" fill="white"/>
</svg>
