<svg width="28" height="27" viewBox="0 0 28 27" fill="none" xmlns="http://www.w3.org/2000/svg">
<path d="M23.9968 23.0085H19.9991V16.743C19.9991 15.249 19.9691 13.326 17.914 13.326C15.8304 13.326 15.5124 14.952 15.5124 16.6335V23.0085H11.5132V10.125H15.3534V11.88H15.4059C15.9429 10.869 17.248 9.79949 19.1981 9.79949C23.2483 9.79949 23.9983 12.4665 23.9983 15.936V23.0085H23.9968ZM6.99797 8.36249C6.69279 8.36289 6.39053 8.30305 6.10852 8.1864C5.82651 8.06976 5.5703 7.8986 5.35457 7.68275C5.13885 7.46689 4.96785 7.21058 4.85138 6.92851C4.73491 6.64644 4.67526 6.34416 4.67585 6.039C4.67615 5.57975 4.81263 5.1309 5.06803 4.74922C5.32344 4.36753 5.6863 4.07015 6.11072 3.89468C6.53515 3.7192 7.00208 3.67352 7.45247 3.76341C7.90286 3.85329 8.31647 4.07471 8.64102 4.39966C8.96556 4.7246 9.18646 5.13849 9.27576 5.58897C9.36507 6.03945 9.31879 6.5063 9.14276 6.93047C8.96673 7.35465 8.66886 7.7171 8.28683 7.972C7.90479 8.2269 7.45574 8.36279 6.99647 8.36249H6.99797ZM9.00208 23.0085H4.99237V10.125H9.00358V23.0085H9.00208ZM25.9994 0H2.98677C1.88271 0 0.993164 0.869999 0.993164 1.9455V25.0545C0.993164 26.13 1.88421 27 2.98527 27H25.9935C27.0945 27 27.9946 26.13 27.9946 25.0545V1.9455C27.9946 0.869999 27.0945 0 25.9935 0H25.998H25.9994Z" fill="white"/>
</svg>
