<svg width="28" height="27" viewBox="0 0 28 27" fill="none" xmlns="http://www.w3.org/2000/svg">
<path d="M0.907701 27L2.733 20.2932C1.53027 18.2315 0.89838 15.8868 0.902301 13.5C0.902301 6.04395 6.94656 0 14.403 0C21.8594 0 27.9037 6.04395 27.9037 13.5C27.9037 20.956 21.8594 27 14.403 27C12.0171 27.0038 9.67324 26.3725 7.61215 25.1707L0.907701 27ZM9.53059 7.1658C9.35625 7.17662 9.18589 7.22254 9.02972 7.30079C8.88327 7.38372 8.74957 7.4874 8.6328 7.60859C8.47079 7.76114 8.37899 7.89344 8.28043 8.02169C7.78146 8.67104 7.51306 9.46811 7.51764 10.287C7.52034 10.9485 7.69315 11.5924 7.96316 12.1945C8.51534 13.4122 9.42394 14.7015 10.6242 15.8962C10.9131 16.1838 11.1952 16.4727 11.499 16.7413C12.9886 18.0528 14.7638 18.9986 16.6833 19.5034L17.4515 19.6209C17.7012 19.6344 17.951 19.6155 18.2021 19.6033C18.5953 19.583 18.9792 19.4766 19.3267 19.2915C19.5508 19.1727 19.6561 19.1133 19.8438 18.9945C19.8438 18.9945 19.9018 18.9567 20.0125 18.873C20.1948 18.738 20.3069 18.6421 20.4581 18.4842C20.5701 18.3681 20.6673 18.2317 20.7416 18.0765C20.8469 17.8564 20.9522 17.4366 20.9954 17.0869C21.0278 16.8196 21.0183 16.6738 21.0143 16.5834C21.0089 16.4389 20.8887 16.2891 20.7578 16.2256L19.972 15.8733C19.972 15.8733 18.7975 15.3616 18.0806 15.0349C18.005 15.002 17.924 14.9832 17.8416 14.9796C17.7493 14.9701 17.6559 14.9805 17.5679 15.0101C17.4799 15.0396 17.3992 15.0877 17.3313 15.151V15.1483C17.3245 15.1483 17.2341 15.2253 16.258 16.4079C16.202 16.4832 16.1248 16.5401 16.0363 16.5713C15.9478 16.6026 15.852 16.6068 15.7612 16.5834C15.6732 16.5599 15.587 16.5301 15.5033 16.4943C15.3359 16.4241 15.2778 16.3971 15.1631 16.3471L15.1563 16.3444C14.384 16.0072 13.6689 15.5518 13.0367 14.9944C12.8666 14.8459 12.7087 14.6839 12.5467 14.5273C12.0155 14.0187 11.5526 13.4433 11.1696 12.8155L11.0899 12.6873C11.0327 12.6011 10.9865 12.5081 10.9522 12.4105C10.9009 12.2121 11.0346 12.0528 11.0346 12.0528C11.0346 12.0528 11.3626 11.6937 11.5152 11.4993C11.6422 11.3377 11.7607 11.1696 11.8703 10.9957C12.0296 10.7392 12.0795 10.476 11.9958 10.2721C11.6178 9.34874 11.2263 8.42939 10.824 7.51679C10.7443 7.33589 10.508 7.20629 10.2934 7.18064C10.2205 7.17254 10.1476 7.16445 10.0747 7.15905C9.89337 7.15004 9.71169 7.15184 9.53059 7.16445V7.1658Z" fill="white"/>
</svg>
